<?xml version="1.0" encoding="UTF-8"?>
<!DOCTYPE svg PUBLIC "-//W3C//DTD SVG 1.1//EN" "http://www.w3.org/Graphics/SVG/1.1/DTD/svg11.dtd">
<svg xmlns="http://www.w3.org/2000/svg" version="1.1" width="100%" height="100%" viewBox="0 0 512 512"
    enable-background="new 0 0 512 512" xml:space="preserve"
    style="shape-rendering:geometricPrecision; text-rendering:geometricPrecision; image-rendering:optimizeQuality; fill-rule:evenodd; clip-rule:evenodd">
    <g>
        <path style="opacity:1" fill="#0db561"
            d="M 73.5,47.5 C 194.834,47.3333 316.167,47.5 437.5,48C 464.422,54.9222 480.255,72.0889 485,99.5C 485.667,203.5 485.667,307.5 485,411.5C 480.255,438.911 464.422,456.078 437.5,463C 316.167,463.667 194.833,463.667 73.5,463C 46.5784,456.078 30.745,438.911 26,411.5C 25.3333,307.5 25.3333,203.5 26,99.5C 30.9318,72.0735 46.7651,54.7401 73.5,47.5 Z" />
    </g>
    <g>
        <path style="opacity:1" fill="#fefefe"
            d="M 276.5,167.5 C 276.5,189.833 276.5,212.167 276.5,234.5C 298.833,234.5 321.167,234.5 343.5,234.5C 354.804,236.64 361.137,243.473 362.5,255C 361.585,267.075 355.252,274.242 343.5,276.5C 321.167,276.5 298.833,276.5 276.5,276.5C 276.5,298.833 276.5,321.167 276.5,343.5C 274.242,355.252 267.075,361.585 255,362.5C 243.473,361.137 236.64,354.804 234.5,343.5C 234.5,321.167 234.5,298.833 234.5,276.5C 212.167,276.5 189.833,276.5 167.5,276.5C 155.764,274.256 149.43,267.09 148.5,255C 149.878,243.458 156.212,236.625 167.5,234.5C 189.833,234.5 212.167,234.5 234.5,234.5C 234.5,212.167 234.5,189.833 234.5,167.5C 236.625,156.212 243.458,149.878 255,148.5C 267.09,149.43 274.256,155.764 276.5,167.5 Z" />
    </g>
    <g>
        <path style="opacity:1" fill="#5ecd95"
            d="M 234.5,167.5 C 234.5,189.833 234.5,212.167 234.5,234.5C 212.167,234.5 189.833,234.5 167.5,234.5C 189.327,233.503 211.327,233.169 233.5,233.5C 233.169,211.327 233.503,189.327 234.5,167.5 Z" />
    </g>
    <g>
        <path style="opacity:1" fill="#5dcd95"
            d="M 276.5,167.5 C 277.497,189.327 277.831,211.327 277.5,233.5C 299.673,233.169 321.673,233.503 343.5,234.5C 321.167,234.5 298.833,234.5 276.5,234.5C 276.5,212.167 276.5,189.833 276.5,167.5 Z" />
    </g>
    <g>
        <path style="opacity:1" fill="#5dcd95"
            d="M 167.5,276.5 C 189.833,276.5 212.167,276.5 234.5,276.5C 234.5,298.833 234.5,321.167 234.5,343.5C 233.503,321.673 233.169,299.673 233.5,277.5C 211.327,277.831 189.327,277.497 167.5,276.5 Z" />
    </g>
    <g>
        <path style="opacity:1" fill="#5dcd95"
            d="M 343.5,276.5 C 321.673,277.497 299.673,277.831 277.5,277.5C 277.831,299.673 277.497,321.673 276.5,343.5C 276.5,321.167 276.5,298.833 276.5,276.5C 298.833,276.5 321.167,276.5 343.5,276.5 Z" />
    </g>
</svg>