<?xml version="1.0" encoding="UTF-8"?>
<!DOCTYPE svg PUBLIC "-//W3C//DTD SVG 1.1//EN" "http://www.w3.org/Graphics/SVG/1.1/DTD/svg11.dtd">
<svg version="1.1" width="100%" height="100%" viewBox="0 0 512 512" enable-background="new 0 0 512 512"
    xml:space="preserve"
    style="shape-rendering:geometricPrecision; text-rendering:geometricPrecision; image-rendering:optimizeQuality;odd; clip-rule:evenodd"
    xmlns:xlink="http://www.w3.org/1999/xlink">
    <g>
        <path style="opacity:0.958"
            d="M 42.5,31.5 C 179.834,31.3333 317.167,31.5 454.5,32C 459.641,33.8074 463.141,37.3074 465,42.5C 465.667,143.167 465.667,243.833 465,344.5C 460,349.833 455,349.833 450,344.5C 449.667,343.5 449.333,342.5 449,341.5C 448.667,326.833 448.333,312.167 448,297.5C 419.5,269 391,240.5 362.5,212C 361.833,211.333 361.167,211.333 360.5,212C 339.653,232.68 318.986,253.514 298.5,274.5C 310.152,286.653 321.986,298.653 334,310.5C 336.608,317.669 334.108,322.002 326.5,323.5C 324.701,323.423 323.034,322.923 321.5,322C 277.986,278.32 234.32,234.82 190.5,191.5C 142.847,238.653 95.347,285.986 48,333.5C 47.5,371.832 47.3333,410.165 47.5,448.5C 145.834,448.333 244.167,448.5 342.5,449C 349.16,451.49 350.993,455.99 348,462.5C 347.097,463.701 345.931,464.535 344.5,465C 243.833,465.667 143.167,465.667 42.5,465C 38.6578,463.332 35.4912,460.832 33,457.5C 31.3383,319.222 31.005,180.889 32,42.5C 33.6844,36.9845 37.1844,33.3178 42.5,31.5 Z M 48.5,47.5 C 181.833,47.5 315.167,47.5 448.5,47.5C 448.667,122.501 448.5,197.501 448,272.5C 422.833,247.333 397.667,222.167 372.5,197C 365.481,192.439 358.481,192.439 351.5,197C 329.667,218.833 307.833,240.667 286,262.5C 257.5,234 229,205.5 200.5,177C 192.966,172.379 185.633,172.713 178.5,178C 135,221.5 91.5,265 48,308.5C 47.1696,221.43 47.3363,134.43 48.5,47.5 Z M 284.5,123.5 C 304.162,123.327 313.329,132.994 312,152.5C 306.162,168.002 295.328,173.168 279.5,168C 266.716,160.247 263.216,149.414 269,135.5C 272.659,129.435 277.826,125.435 284.5,123.5 Z" />
    </g>
    <g>
        <path style="opacity:0.932"
            d="M 282.5,106.5 C 306.534,104.923 322.034,115.59 329,138.5C 331.862,164.957 320.362,181.123 294.5,187C 271.518,187.932 256.685,177.432 250,155.5C 246.904,129.645 257.737,113.312 282.5,106.5 Z M 284.5,123.5 C 277.826,125.435 272.659,129.435 269,135.5C 263.216,149.414 266.716,160.247 279.5,168C 295.328,173.168 306.162,168.002 312,152.5C 313.329,132.994 304.162,123.327 284.5,123.5 Z" />
    </g>
    <g>
        <path style="opacity:0.936"
            d="M 417.5,359.5 C 422.421,359.043 425.921,361.043 428,365.5C 428.5,380.83 428.667,396.163 428.5,411.5C 444.17,411.333 459.837,411.5 475.5,412C 479.327,415.308 480.494,419.474 479,424.5C 477.681,426.487 475.848,427.654 473.5,428C 458.504,428.5 443.504,428.667 428.5,428.5C 428.667,443.837 428.5,459.17 428,474.5C 426.601,478.238 423.934,479.904 420,479.5C 416.455,479.961 413.788,478.628 412,475.5C 411.5,459.837 411.333,444.17 411.5,428.5C 396.163,428.667 380.83,428.5 365.5,428C 359.628,424.984 358.128,420.484 361,414.5C 361.903,413.299 363.069,412.465 364.5,412C 380.163,411.5 395.83,411.333 411.5,411.5C 411.333,395.83 411.5,380.163 412,364.5C 413.107,361.887 414.94,360.22 417.5,359.5 Z" />
    </g>
</svg>